<!--?xml version="1.0" standalone="no"?-->
              <svg id="sw-js-blob-svg" viewBox="0 0 100 100" xmlns="http://www.w3.org/2000/svg" version="1.1">
                    <defs> 
                        <linearGradient id="sw-gradient" x1="0" x2="1" y1="1" y2="0">
                            <stop id="stop1" stop-color="rgba(228.936, 188.651, 42.617, 1)" offset="0%"></stop>
                            <stop id="stop2" stop-color="rgba(33.311, 206.808, 255, 1)" offset="100%"></stop>
                        </linearGradient>
                    </defs>
                <path fill="url(#sw-gradient)" d="M20.8,-24.9C24.4,-21.7,23.2,-12.8,24.9,-4.3C26.5,4.2,30.9,12.3,28.8,17.1C26.6,21.9,17.8,23.4,10.1,25C2.4,26.6,-4.2,28.2,-13,28.3C-21.7,28.3,-32.4,26.6,-37.9,20.3C-43.3,14,-43.5,3.2,-39.9,-5.3C-36.3,-13.7,-29,-19.7,-21.7,-22.4C-14.4,-25,-7.2,-24.2,0.7,-25C8.5,-25.8,17.1,-28.2,20.8,-24.9Z" width="100%" height="100%" transform="translate(50 50)" stroke-width="0" style="transition: all 0.3s ease 0s;"></path>
              </svg>